<?xml version="1.0" encoding="UTF-8" standalone="no"?>
<svg width="359px" height="255px" viewBox="0 0 359 255" version="1.1" xmlns="http://www.w3.org/2000/svg" xmlns:xlink="http://www.w3.org/1999/xlink">
    <!-- Generator: Sketch 48.2 (47327) - http://www.bohemiancoding.com/sketch -->
    <title>calzado</title>
    <desc>Created with Sketch.</desc>
    <defs></defs>
    <g id="08_Industria_Calzado" stroke="none" stroke-width="1" fill="none" fill-rule="evenodd" transform="translate(-571.000000, -511.000000)">
        <g id="calzado" transform="translate(569.000000, 511.000000)">
            <polygon id="Shape" fill="#40B4E5" fill-rule="nonzero" opacity="0.25" points="253.751447 0 113.248553 0 43 113.5 113.248553 227 253.751447 227 324 113.5"></polygon>
            <polyline id="Shape" stroke="#002856" stroke-width="4" stroke-linecap="round" points="260 39.5402864 323.478303 30 337 94.5750108 291.58543 125"></polyline>
            <circle id="Oval" stroke="#002856" stroke-width="4" fill="#FFFFFF" fill-rule="nonzero" stroke-linecap="round" transform="translate(322.500000, 29.500000) rotate(-64.950000) translate(-322.500000, -29.500000) " cx="322.5" cy="29.5" r="3.5"></circle>
            <circle id="Oval" fill="#40B4E5" fill-rule="nonzero" transform="translate(336.500000, 93.500000) rotate(-64.950000) translate(-336.500000, -93.500000) " cx="336.5" cy="93.5" r="3.5"></circle>
            <circle id="Oval" fill="#40B4E5" fill-rule="nonzero" transform="translate(260.500000, 39.500000) rotate(-64.950000) translate(-260.500000, -39.500000) " cx="260.5" cy="39.5" r="3.5"></circle>
            <polyline id="Shape" stroke="#002856" stroke-width="4.82" stroke-linecap="round" points="5 55.0180267 64.3676918 22 129 83"></polyline>
            <circle id="Oval" fill="#40B4E5" fill-rule="nonzero" transform="translate(6.500000, 56.500000) rotate(-26.030000) translate(-6.500000, -56.500000) " cx="6.5" cy="56.5" r="4.5"></circle>
            <circle id="Oval" stroke="#002856" stroke-width="4.82" fill="#FFFFFF" fill-rule="nonzero" stroke-linecap="round" transform="translate(65.500000, 22.500000) rotate(-26.030000) translate(-65.500000, -22.500000) " cx="65.5" cy="22.5" r="4.5"></circle>
            <polyline id="Shape" stroke="#002856" stroke-width="4" stroke-linecap="round" points="25 199.129979 51.1041756 209 65 187"></polyline>
            <circle id="Oval" stroke="#002856" stroke-width="4" fill="#FFFFFF" fill-rule="nonzero" stroke-linecap="round" transform="translate(50.500000, 207.500000) rotate(-9.090000) translate(-50.500000, -207.500000) " cx="50.5" cy="207.5" r="3.5"></circle>
            <circle id="Oval" fill="#40B4E5" fill-rule="nonzero" transform="translate(24.500000, 199.500000) rotate(-9.180542) translate(-24.500000, -199.500000) " cx="24.5" cy="199.5" r="3.5"></circle>
            <polyline id="Shape" stroke="#002856" stroke-width="4" stroke-linecap="round" points="216 253 280 196.882353 227.566125 145"></polyline>
            <circle id="Oval" fill="#40B4E5" fill-rule="nonzero" transform="translate(215.500000, 251.500000) rotate(-66.350000) translate(-215.500000, -251.500000) " cx="215.5" cy="251.5" r="3.5"></circle>
            <circle id="Oval" stroke="#002856" stroke-width="4" fill="#FFFFFF" fill-rule="nonzero" stroke-linecap="round" transform="translate(278.500000, 195.500000) rotate(-66.350000) translate(-278.500000, -195.500000) " cx="278.5" cy="195.5" r="3.5"></circle>
            <path d="M146,136.392192 C162.043803,137.406662 208.389345,142.444025 210.424536,142.659745 C222.896607,143.98905 241.735174,145.994667 260.962225,145.994667 C269.977704,146.062788 278.986365,145.47825 287.918365,144.245582 C313.958379,140.385936 336.989092,132.130256 348,127.740054 C347.735826,125.330919 346.671534,123.081716 344.979103,121.355896 C336.513635,112.610473 312.589988,112.668776 296.760721,112.727079 C291.611861,112.727079 287.170389,112.76206 283.645043,112.523019 C269.079798,111.549362 249.568632,101.264744 240.424766,96 L238.923015,114.132176 C238.837665,115.15364 238.332354,116.092979 237.528849,116.723837 C236.725343,117.354696 235.696514,117.619862 234.690281,117.455437 C233.919111,117.350492 160.443481,105.765722 146,136.392192 Z" id="Shape" fill="#3DABD9" fill-rule="nonzero"></path>
            <path d="M118.731245,134.317872 C125.764769,134.45661 132.306236,134.68784 138.471424,135 C150.894423,100.772183 215.209201,106.743697 232.020193,108.923039 L234,85.1699401 C230.866271,82.7381715 227.79236,80.4644101 224.778268,78.3486558 L222.671105,83.5513303 C221.884513,85.368484 219.790033,86.2274129 217.951551,85.48678 C216.113069,84.7461472 215.201764,82.6763374 215.898082,80.8228165 L218.601502,74.1344895 C215.382869,72.0148814 212.268436,70.0686957 209.258203,68.2959326 L206.363749,74.3252542 C205.487736,76.1418547 203.302863,76.9053528 201.483698,76.0305751 C199.664534,75.1557973 198.899958,72.9740041 199.77597,71.1574035 L202.913559,64.6771835 C199.388113,62.7464131 196.088435,61.0642151 193.072414,59.6016855 L189.720635,65.9605098 C188.748033,67.6764969 186.585899,68.31004 184.838983,67.3909193 C183.092067,66.4717986 182.392813,64.3327674 183.260213,62.5614292 L186.397802,56.5321075 C181.066216,54.2198078 177.008191,52.7746204 174.646316,52 C159.803554,66.370943 152.972641,71.5736175 151.450158,72.5332219 C133.915553,85.4358546 112.195566,89.1297534 88.6289179,83.2969773 C79.1221245,80.9177873 69.9731361,77.2905641 61.4210458,72.5100989 C60.008552,75.6663881 57.3688095,82.6206296 53.3860401,97.4135673 C46.9545622,121.166667 55.4526806,131.589358 56.442584,132.676139 C65.3285593,133.040326 84.3335475,133.653085 118.731245,134.317872 Z" id="Shape" fill="#FFFFFF" fill-rule="nonzero"></path>
            <path d="M261.109939,154.069441 C241.477693,154.069441 222.368044,151.988963 209.726991,150.607956 C207.706281,150.386756 160.655086,144.40837 118.284041,143.069211 C79.8731249,141.873534 60.5195974,141.604507 53,141.275696 L53,159.946195 L127.772089,159.946195 L127.772089,154.177052 C127.772089,151.020464 129.479241,150.404691 131.436079,150.404691 L131.465112,150.404691 C160.875738,150.649805 180.351205,153.18464 199.228588,155.283054 C226.821736,158.343987 258.781477,160 260.15765,160 C277.902739,160 299.160844,156.909175 320.018291,151.289492 C335.945901,147.002989 348.186296,142.124626 353,139.159347 L353,134 C342.623536,138.376178 317.939514,147.833985 289.167618,152.198206 C279.870901,153.515485 270.494026,154.140852 261.109939,154.069441 Z" id="Shape" fill="#3DABD9" fill-rule="nonzero"></path>
            <path d="M359.305342,126.340043 C358.273562,125.671335 356.979241,125.569939 355.85799,126.069981 C355.119958,122.797744 353.493939,119.798753 351.162858,117.410393 C340.524817,106.320249 315.760756,106.408313 297.624433,106.472893 C292.604299,106.472893 288.274796,106.502248 285.007356,106.285024 C270.254545,105.28697 248.444529,92.7819376 241.938667,88.8425589 L242.234652,85.2613055 C242.335077,84.0243679 241.816519,82.8187391 240.85339,82.0499193 C205.213339,53.5407942 176.026917,45.4213296 174.802352,45.0925588 C173.320342,44.7632517 171.783486,45.327964 170.855889,46.5426728 C161.773218,56.9987585 147.844522,67.7366477 147.769075,67.7894858 C131.814914,79.6956855 112.71519,82.9951353 90.9922278,77.6056426 C80.9425893,75.0957068 71.3311209,71.046974 62.4906336,65.5996375 C61.3379942,64.8291759 59.8551696,64.779251 58.6544385,65.4704775 C58.0740762,65.8109901 57.0062095,66.4274354 55.0794065,70.7542939 C53.1526036,75.0811525 50.4945441,82.7133318 46.629331,97.1733761 C41.40607,116.670659 45.0449418,128.964338 48.2543455,135.210984 C47.2073949,135.920974 46.5600384,137.095359 46.5132585,138.369532 L46.5132585,164.277845 C46.5414731,166.287247 48.1482654,167.907458 50.1347195,167.929549 L132.209561,167.929549 C133.181279,167.931111 134.113642,167.541313 134.800751,166.846238 C135.487861,166.151163 135.873191,165.20799 135.871647,164.225007 L135.871647,158.606549 C162.835281,158.994028 181.273392,161.125168 199.131141,163.303274 C230.244366,167.101751 259.436592,168 260.881694,168 C303.799488,168 351.128037,151.81978 359.618738,144.986044 C360.491353,144.282222 360.999728,143.214789 361,142.085816 L361,129.457495 C360.998703,128.193709 360.359623,127.018073 359.305342,126.340043 Z M241.265447,97.0324743 C250.411957,102.316291 269.94115,112.690184 284.519852,113.670625 C288.048455,113.911332 292.49403,113.89372 297.647648,113.876107 C313.491539,113.817398 337.437289,113.741076 345.910579,122.56505 C347.60817,124.312166 348.673504,126.587507 348.934267,129.023047 C346.572192,129.974134 343.658773,131.101349 340.275261,132.322497 C327.890329,136.80787 309.272305,142.590714 288.797122,145.643586 C279.859028,146.886975 270.843821,147.475598 261.821881,147.404858 C242.582869,147.404858 223.71529,145.385266 211.2375,144.05257 C209.194624,143.835346 162.812067,138.768753 146.747637,137.741345 C161.204463,106.895598 234.747978,118.566962 235.543074,118.690251 C236.548921,118.858605 237.578453,118.592381 238.381046,117.956387 C239.185535,117.319678 239.69218,116.373325 239.779719,115.343834 L240.156955,110.735172 L241.265447,97.0324743 Z M53.6981442,99.07555 C57.7142515,84.0577695 60.3374893,76.9891973 61.7535734,73.783682 C70.3266948,78.6402068 79.4991407,82.3240822 89.0306031,84.7387948 C101.798574,87.9443101 114.050023,88.3083063 125.372892,85.9129762 C135.007686,83.8788928 144.094445,79.7634727 152.011524,73.848262 C153.54368,72.8736914 160.386152,67.5840041 175.266642,52.9947998 C177.634521,53.7815014 181.702861,55.2492281 187.047998,57.597591 L183.879219,63.6798508 C183.22182,64.8548205 183.24837,66.2985424 183.948514,67.4479651 C184.648658,68.5973878 185.911516,69.2704785 187.244573,69.204732 C188.57763,69.1389855 189.769772,68.344814 190.356063,67.1319442 L193.716361,60.6739464 C196.763263,62.1592859 200.100347,63.8677198 203.582521,65.8286028 L200.448564,72.4098897 C199.621002,74.2424229 200.39288,76.4080278 202.186064,77.2846749 C203.979247,78.161322 206.136248,77.4275796 207.04148,75.6330178 L209.943292,69.5096616 C212.949569,71.3120301 216.083525,73.2846549 219.31034,75.4334069 L216.623262,82.2143047 C216.095636,83.4490781 216.271151,84.8761527 217.081791,85.9424948 C217.89243,87.008837 219.210789,87.5468536 220.525964,87.3480475 C221.841139,87.1492414 222.946429,86.2448581 223.413501,84.9853729 L225.52602,79.7015564 C228.543905,81.8581363 231.625629,84.1673598 234.771192,86.6292269 L232.919837,109.114801 L232.786353,110.752784 C215.955846,108.539452 151.454376,102.474805 138.9998,137.236447 C132.824745,136.925288 126.26665,136.684581 119.215248,136.54955 C84.7127073,135.874396 65.6652155,135.25208 56.7624573,134.911567 C55.7642341,133.784353 47.2329078,123.199108 53.6981442,99.07555 Z M353.66422,140.136675 C348.847213,143.072128 336.613175,147.839305 320.693836,152.048745 C299.847221,157.561527 278.600156,160.602657 260.864283,160.602657 C259.483021,160.602657 227.539878,158.976416 199.966863,155.970511 C181.099284,153.909823 161.628127,151.420558 132.232775,151.179851 L132.203757,151.179851 C130.25374,151.179851 128.547474,151.766942 128.547474,154.884393 L128.547474,160.543948 L53.8258239,160.543948 L53.8258239,142.209105 C61.3357125,142.520263 80.6791891,142.766841 119.070157,143.970377 C161.436608,145.28546 208.445957,151.156367 210.465618,151.373591 C223.100106,152.72977 242.194027,154.772846 261.821881,154.772846 C271.200728,154.850689 280.572864,154.242443 289.864989,152.952865 C318.453637,148.690586 343.008768,139.490875 353.484308,135.158145 L353.66422,135.052469 L353.66422,140.136675 Z" id="Shape" fill="#172B54" fill-rule="nonzero"></path>
            <path d="M361,135.168306 L361,140.42858 C360.999728,141.542621 360.491312,142.595935 359.618625,143.290447 C351.127232,150.033794 303.794828,166 260.873536,166 C259.428316,166 230.233713,165.125219 199.117953,161.365397 C181.270357,159.221894 162.830743,157.118943 135.853304,156.730795 L135.853304,162.274938 C135.854848,163.24492 135.469486,164.175617 134.782321,164.861499 C134.095156,165.54738 133.162717,165.932022 132.190919,165.930481 L50.1209991,165.930481 C48.0983199,165.930481 46.4586144,164.293839 46.4586144,162.274938 L46.4586144,136.720898 C46.5053982,135.463579 47.1528074,134.304727 48.1998433,133.604128 C45.0308068,127.440106 41.4148548,115.309034 46.6385414,96.0696397 C50.5040695,81.8066502 53.2087783,74.1653491 55.0893055,70 L125.376911,84.9697665 L232.944225,107.882083 L240.164521,109.423089 L340.285181,130.753847 L353.495304,133.569368 L353.681035,133.609921 L361,135.168306 Z" id="Shape" fill="#002856" fill-rule="nonzero" opacity="0.1"></path>
        </g>
    </g>
</svg>